<svg xmlns="http://www.w3.org/2000/svg" width="796" height="758" viewBox="0 0 796 758">
<g>
<path d="M 306.17 695.09 C298.53,700.20 296.84,700.70 293.50,698.81 C288.75,696.11 288.91,693.65 294.52,683.00 C301.45,669.87 307.03,658.14 309.74,651.00 C312.80,642.96 317.97,626.02 317.99,624.01 C317.99,623.19 310.46,629.97 301.25,639.08 C274.21,665.82 256.08,682.25 254.36,681.59 C253.52,681.26 252.67,681.00 252.47,681.00 C252.26,681.00 250.13,677.95 247.72,674.23 C238.42,659.85 213.96,637.53 191.94,623.31 C168.33,608.07 142.48,596.61 117.76,590.41 C112.12,589.00 106.49,587.19 105.25,586.40 C100.41,583.29 103.27,577.99 114.26,569.70 C122.74,563.31 126.61,558.74 132.00,548.73 C139.89,534.11 145.84,511.85 150.91,477.95 C155.53,447.06 157.10,426.80 157.71,390.50 C158.29,355.84 157.45,338.20 154.02,312.50 C147.03,260.04 129.80,217.24 105.59,192.19 C91.48,177.60 75.67,168.40 60.58,166.00 C48.86,164.14 45.76,162.18 47.98,158.04 C49.77,154.68 63.05,145.75 71.81,142.01 C86.00,135.93 93.39,134.49 110.00,134.56 C125.37,134.62 135.21,136.15 147.83,140.44 L 154.57 142.74 L 164.14 134.12 C169.40,129.38 184.00,116.28 196.57,105.00 C209.15,93.72 224.37,80.00 230.40,74.50 C236.43,69.00 245.22,61.16 249.93,57.08 C254.64,53.00 261.25,47.06 264.61,43.88 C272.89,36.05 278.49,34.77 280.43,40.28 C281.28,42.69 280.46,44.84 273.77,57.77 C266.50,71.82 257.17,96.68 255.52,106.39 L 254.86 110.28 L 269.68 96.73 C285.60,82.18 301.26,66.42 307.44,58.74 C314.42,50.05 318.24,50.91 324.06,62.50 C334.22,82.72 353.17,100.43 380.00,114.77 C380.54,115.06 381.06,115.34 381.55,115.60 C386.31,118.16 388.72,119.46 390.99,119.24 C393.57,119.00 395.96,116.81 401.37,112.31 C419.76,97.04 433.94,83.90 448.04,69.09 C455.90,60.84 462.97,53.84 463.75,53.54 C467.05,52.28 470.10,54.27 472.68,59.37 C485.71,85.10 518.36,114.71 551.02,130.42 C562.79,136.08 582.03,142.83 592.58,145.01 C595.84,145.68 600.21,147.10 602.31,148.17 C605.79,149.93 606.09,150.41 605.81,153.72 C605.54,156.86 604.51,158.17 598.20,163.42 C584.52,174.80 576.54,189.65 569.98,215.96 C561.99,247.98 558.02,286.18 558.01,331.17 C557.99,379.14 561.38,411.40 570.08,446.20 C578.68,480.60 592.92,513.14 608.20,533.30 C627.48,558.73 651.53,574.25 679.00,578.98 C688.13,580.56 689.00,580.90 689.00,582.94 C689.00,585.17 687.98,585.95 681.00,589.01 C677.97,590.33 675.35,591.51 675.17,591.62 C674.99,591.74 675.33,592.75 675.94,593.88 C676.92,595.71 676.39,596.45 671.27,600.47 C668.10,602.96 665.18,605.00 664.80,605.00 C664.41,605.00 661.26,603.02 657.79,600.59 L 651.49 596.19 L 643.99 598.04 C626.08,602.48 602.00,608.00 600.57,608.00 C599.70,608.00 599.00,607.46 599.00,606.80 C599.00,606.15 597.79,604.35 596.31,602.80 L 593.63 600.00 L 596.18 600.00 C597.58,600.00 608.80,597.95 621.11,595.45 C633.43,592.95 646.88,590.26 651.00,589.47 C666.21,586.55 673.08,584.03 665.95,583.98 C650.87,583.87 627.56,571.60 612.45,555.83 C594.38,536.96 583.77,519.69 571.70,489.50 C559.09,457.95 551.55,425.18 547.31,383.50 C544.78,358.56 544.78,292.80 547.32,270.50 C554.02,211.59 564.67,179.77 584.46,159.50 L 589.54 154.30 L 581.02 152.27 C547.44,144.26 508.98,121.89 485.31,96.59 C476.96,87.67 469.03,76.72 466.46,70.56 L 464.98 67.02 L 461.33 71.26 C453.56,80.27 424.85,107.19 403.11,125.84 C396.61,131.41 394.23,132.90 392.61,132.42 C391.45,132.08 385.85,129.61 380.17,126.93 C368.39,121.36 354.11,112.26 342.58,102.95 C333.56,95.67 320.58,80.57 316.95,73.11 C315.60,70.34 314.27,68.06 314.00,68.05 C313.73,68.03 312.46,69.54 311.19,71.41 C307.79,76.40 280.90,102.43 262.50,118.53 C245.03,133.82 240.22,137.55 239.24,136.58 C238.89,136.22 239.14,130.66 239.79,124.22 C241.69,105.43 246.79,89.05 257.51,67.25 C260.29,61.61 262.45,57.00 262.32,57.00 C262.19,57.00 259.92,59.33 257.29,62.19 C245.84,74.58 169.73,144.75 156.78,154.86 C155.29,156.02 153.91,155.71 146.77,152.64 C120.13,141.20 92.09,141.59 67.27,153.74 L 61.85 156.40 L 68.18 157.66 C84.31,160.90 98.55,169.22 113.01,183.87 C124.43,195.43 133.80,209.11 141.89,226.03 C163.28,270.79 172.75,328.89 169.99,398.50 C168.70,430.90 167.03,448.75 161.89,485.00 C155.23,531.96 144.61,557.95 125.52,573.97 L 119.01 579.44 L 127.42 581.67 C155.71,589.18 190.28,606.97 214.50,626.47 C228.29,637.59 240.62,648.95 247.50,656.91 C251.35,661.36 254.90,665.00 255.39,665.00 C257.98,665.00 299.04,626.50 319.50,604.88 C325.55,598.49 331.13,593.20 331.90,593.13 C333.07,593.02 333.20,595.01 332.68,604.75 C331.94,618.80 328.32,633.25 321.47,649.55 C318.94,655.57 316.37,661.84 315.76,663.47 C315.15,665.11 312.98,669.38 310.93,672.97 C308.89,676.56 307.36,679.66 307.54,679.85 C307.95,680.29 335.54,656.12 352.98,640.02 C360.42,633.16 386.17,608.01 410.21,584.14 L 453.92 540.73 L 449.21 534.87 C424.03,503.54 406.80,457.86 400.03,404.50 C393.09,349.72 395.53,278.58 406.05,229.00 C410.51,208.01 422.36,167.00 423.97,167.00 C424.27,167.00 429.40,171.01 435.39,175.91 C441.37,180.80 452.73,189.69 460.63,195.66 L 474.99 206.50 L 474.41 213.50 C473.76,221.19 471.70,239.86 467.10,279.50 C462.94,315.43 461.62,342.59 462.29,378.50 C462.82,407.01 464.20,426.62 467.54,453.50 C469.02,465.37 469.75,470.11 476.48,512.00 C481.58,543.75 482.46,554.00 482.36,580.23 C482.27,600.52 482.02,604.28 480.62,606.23 C474.79,614.31 472.30,617.40 471.37,617.71 C470.62,617.96 470.45,610.71 470.79,593.70 C471.24,570.82 469.86,543.55 468.16,541.83 C467.80,541.46 456.03,553.16 442.01,567.83 C410.42,600.89 370.45,640.93 358.48,651.52 C338.59,669.12 335.08,672.17 324.50,680.99 C318.45,686.04 310.20,692.38 306.17,695.09 ZM 336.06 572.43 C331.74,577.64 296.98,568.94 272.50,556.53 C256.54,548.43 240.76,538.06 241.50,536.14 C242.56,533.39 245.93,510.47 247.42,496.00 C250.64,464.52 251.50,442.09 251.48,390.00 C251.45,335.82 250.74,319.77 245.97,266.50 C244.88,254.40 243.12,234.60 242.04,222.50 C239.54,194.40 237.47,158.19 238.32,157.35 C239.37,156.30 265.13,166.60 282.50,175.01 C296.76,181.91 318.73,195.14 320.39,197.82 C320.73,198.37 320.11,207.07 319.03,217.16 C307.98,319.46 306.77,355.02 312.59,407.00 C314.41,423.28 317.34,443.53 320.04,458.48 C324.01,480.42 331.86,529.96 334.58,550.18 C336.89,567.31 337.14,571.13 336.06,572.43 ZM 312.00 558.00 C320.50,560.43 322.27,560.48 321.64,558.25 C319.92,552.24 300.59,436.31 298.04,416.78 C291.06,363.21 291.46,317.37 299.56,244.00 C301.21,229.08 303.58,211.25 304.58,206.30 L 305.23 203.09 L 291.87 196.66 C284.51,193.11 273.77,188.54 268.00,186.49 C262.23,184.44 256.67,182.33 255.66,181.80 C254.65,181.27 253.62,181.04 253.37,181.30 C253.12,181.55 254.49,197.67 256.42,217.13 C267.01,323.82 269.72,382.09 266.98,443.67 C265.87,468.59 262.68,506.27 260.47,520.50 L 259.07 529.50 L 263.20 533.28 C272.12,541.45 295.42,553.26 312.00,558.00 ZM 460.53 529.79 C463.68,533.25 466.44,535.89 466.68,535.66 C467.14,535.19 466.12,529.09 460.63,499.50 C448.59,434.66 444.76,387.85 446.90,331.75 C447.51,315.66 448.46,297.33 449.00,291.00 C450.73,270.79 455.11,232.88 457.09,221.00 L 459.01 209.50 L 455.76 206.76 C448.71,200.85 432.96,189.00 432.12,189.00 C429.49,189.00 418.17,245.56 414.60,276.50 C408.99,325.20 408.98,376.73 414.57,414.50 C421.72,462.86 438.90,505.96 460.53,529.79 ZM 600.74 697.50 C593.09,704.65 586.53,710.61 586.16,710.75 C585.80,710.89 585.64,693.79 585.81,672.75 C585.98,651.71 585.84,632.55 585.49,630.17 C584.85,625.83 579.15,617.99 576.63,618.01 C576.01,618.01 574.54,619.47 573.36,621.26 C571.28,624.42 571.24,625.18 571.68,653.00 L 572.14 681.50 L 562.38 688.00 C552.04,694.89 541.91,702.72 538.36,706.55 L 536.21 708.86 L 529.86 704.05 C520.23,696.76 514.29,693.78 510.87,694.53 C507.08,695.36 507.19,693.72 511.11,690.92 C516.51,687.08 517.00,684.45 517.00,659.47 C517.00,636.28 516.71,634.27 512.82,630.86 C511.02,629.29 511.07,629.15 514.23,627.29 C517.94,625.10 532.37,613.65 538.73,607.86 C541.05,605.74 543.17,604.00 543.43,604.00 C543.69,604.00 547.87,606.85 552.70,610.34 C563.44,618.06 565.03,618.92 567.21,618.12 C568.16,617.78 572.27,614.69 576.36,611.25 C580.45,607.81 584.25,605.00 584.81,605.00 C585.37,605.00 586.03,604.44 586.28,603.75 C586.57,602.93 587.64,603.47 589.36,605.30 C590.81,606.84 592.00,608.42 592.01,608.80 C592.02,609.32 599.24,614.98 604.20,618.36 C604.31,618.44 604.65,632.07 604.95,648.65 C605.46,676.53 605.64,678.95 607.42,680.91 C608.47,682.08 610.53,683.36 611.99,683.77 C614.54,684.47 614.10,685.01 600.74,697.50 ZM 446.65 706.22 C444.46,708.30 442.64,709.98 442.59,709.96 C442.54,709.93 440.38,708.02 437.78,705.71 C435.19,703.39 430.02,699.96 426.28,698.07 C422.55,696.19 419.33,694.51 419.12,694.36 C418.91,694.20 420.12,692.48 421.82,690.55 C426.65,685.05 427.19,681.24 426.83,655.60 C426.47,630.53 425.95,627.98 420.48,624.39 C417.01,622.12 417.36,621.36 422.25,620.58 C424.59,620.21 430.66,617.68 435.75,614.96 L 445.00 610.03 L 445.11 639.26 C445.16,655.34 445.50,673.15 445.86,678.84 C446.46,688.61 446.66,689.31 449.36,691.63 C452.69,694.50 453.64,694.36 456.44,690.62 C458.31,688.11 458.53,686.19 458.83,669.44 C459.19,648.99 458.10,638.97 455.03,634.83 C452.50,631.41 452.51,631.34 455.25,630.64 C456.49,630.33 460.62,627.58 464.43,624.53 C468.24,621.49 471.91,619.00 472.60,619.00 C473.28,619.00 474.49,618.75 475.29,618.44 C476.19,618.10 476.94,618.65 477.27,619.92 C477.56,621.04 479.08,622.46 480.65,623.08 C482.22,623.69 485.52,625.07 488.00,626.13 L 492.50 628.06 L 485.76 621.75 L 479.01 615.43 L 485.28 609.21 C488.73,605.80 491.93,603.00 492.38,603.00 C492.84,603.00 497.68,606.49 503.16,610.75 L 513.10 618.50 L 508.36 622.75 C505.76,625.09 503.10,627.00 502.45,627.00 C501.80,627.00 500.13,627.90 498.73,629.00 C496.59,630.68 494.67,631.00 486.59,631.00 L 477.00 631.00 L 477.00 656.05 C477.00,682.61 477.46,685.57 481.94,687.97 C487.21,690.79 497.38,687.77 506.30,680.75 C508.38,679.10 510.27,677.94 510.48,678.15 C511.76,679.43 506.39,686.14 495.00,697.50 L 482.05 710.42 L 479.27 708.18 C475.30,704.97 461.87,696.00 461.04,696.00 C459.70,696.00 450.60,702.46 446.65,706.22 ZM 687.39 697.59 C685.25,699.02 681.25,702.35 678.50,705.00 L 673.50 709.82 L 668.00 705.26 C664.97,702.75 659.91,699.47 656.75,697.97 C652.04,695.73 651.26,695.03 652.43,694.06 C656.08,691.03 657.00,684.35 657.00,660.76 C657.00,636.97 656.23,630.70 652.88,627.11 C650.97,625.05 650.98,625.04 657.78,621.61 C661.53,619.72 666.92,616.34 669.77,614.09 C672.61,611.84 675.16,610.00 675.44,610.00 C675.71,610.00 676.06,627.59 676.22,649.08 L 676.50 688.17 L 679.77 691.08 C683.87,694.75 685.90,694.75 689.40,691.11 C693.12,687.22 693.90,680.21 693.04,658.50 C692.29,639.51 691.44,636.44 686.58,635.15 L 683.50 634.33 L 688.52 631.76 C691.29,630.35 698.04,625.78 703.52,621.60 C709.01,617.42 717.26,611.13 721.85,607.62 L 730.21 601.24 L 736.81 606.23 C740.44,608.98 744.44,611.70 745.70,612.28 C746.97,612.85 748.00,613.74 748.00,614.26 C748.00,614.77 745.05,618.25 741.44,621.98 L 734.89 628.77 L 729.19 625.03 C718.75,618.17 717.77,617.76 714.75,618.91 L 712.00 619.95 L 712.00 651.34 C712.00,681.66 712.07,682.82 714.09,685.39 C720.46,693.49 729.88,692.71 744.90,682.85 C746.77,681.62 748.11,681.16 747.89,681.82 C747.34,683.48 718.74,710.00 717.50,709.99 C716.95,709.99 712.01,706.62 706.51,702.49 C695.34,694.11 693.37,693.61 687.39,697.59 ZM 352.90 484.00 C352.29,490.88 351.67,496.64 351.51,496.81 C351.35,496.98 350.96,489.55 350.64,480.31 C349.77,454.95 347.25,424.39 344.55,406.50 C339.81,375.12 331.56,337.74 324.93,317.62 C323.32,312.73 322.00,308.31 322.00,307.78 C322.00,306.74 373.40,307.06 374.44,308.11 C374.78,308.45 373.73,312.30 372.12,316.69 C366.41,332.17 361.24,361.01 359.06,389.50 C358.47,397.20 357.09,418.80 355.99,437.50 C354.89,456.20 353.50,477.12 352.90,484.00 ZM 506.41 457.00 C504.54,483.07 503.20,488.66 503.06,471.00 C502.89,447.91 500.34,424.24 493.91,386.03 C489.81,361.61 482.70,329.09 478.57,315.78 L 476.17 308.06 L 479.64 307.41 C483.84,306.62 525.66,307.33 526.54,308.21 C526.88,308.55 525.58,313.70 523.66,319.66 C516.03,343.33 512.66,366.42 509.01,420.00 C508.43,428.52 507.26,445.17 506.41,457.00 ZM 214.00 474.40 C214.00,475.83 213.55,477.00 213.00,477.00 C212.38,477.00 212.00,471.91 211.99,463.75 C211.98,445.74 210.51,429.90 206.86,408.50 C202.29,381.60 190.77,333.40 184.59,315.25 L 182.12 308.01 L 184.66 307.37 C187.74,306.60 233.75,307.42 234.60,308.26 C234.93,308.59 233.78,312.55 232.04,317.04 C225.38,334.32 222.35,353.81 219.01,401.00 C217.90,416.67 216.32,439.02 215.50,450.65 C214.67,462.28 214.00,472.97 214.00,474.40 ZM 628.20 715.45 C624.38,719.05 621.09,722.00 620.88,722.00 C620.67,722.00 620.65,701.86 620.83,677.25 C621.00,652.64 620.85,630.47 620.48,628.00 C619.95,624.43 618.90,622.62 615.39,619.25 C612.96,616.91 611.32,615.00 611.76,615.00 C612.20,615.00 614.92,613.22 617.82,611.04 L 623.09 607.08 L 639.50 619.10 L 640.00 657.30 C640.57,700.79 640.30,699.34 649.10,705.66 C653.49,708.82 654.07,709.65 653.80,712.38 C653.68,713.69 653.61,714.52 653.17,714.87 C652.44,715.45 650.68,714.74 645.87,712.79 L 645.50 712.64 C645.00,712.44 644.52,712.24 644.07,712.06 C639.64,710.26 637.50,709.38 635.60,709.76 C633.63,710.16 631.93,711.93 628.20,715.45 ZM 544.50 690.06 C546.15,691.12 548.20,691.99 549.05,692.00 C552.79,692.01 553.00,690.37 553.00,660.43 C553.00,632.35 552.92,631.17 550.91,628.61 C548.84,625.98 537.86,618.00 536.30,618.00 C535.86,618.00 535.72,632.87 536.00,651.06 L 536.50 684.12 L 539.00 686.12 C540.38,687.22 542.85,688.99 544.50,690.06 ZM 573.51 602.86 C569.49,606.24 565.82,608.97 565.35,608.94 C564.88,608.91 561.74,606.77 558.36,604.19 C554.98,601.61 551.38,598.95 550.36,598.27 C548.65,597.15 549.07,596.51 555.50,590.53 C559.35,586.95 562.78,584.01 563.12,584.01 C563.46,584.00 567.58,586.86 572.28,590.36 L 580.81 596.72 ZM 347.00 360.31 C347.67,365.15 348.36,368.97 348.53,368.81 C348.69,368.64 349.79,362.20 350.96,354.50 C352.13,346.80 353.96,336.15 355.04,330.84 C356.12,325.53 357.00,321.03 356.99,320.84 C356.97,319.91 340.00,320.02 340.00,320.95 C340.00,321.52 341.30,328.63 342.89,336.74 C344.48,344.86 346.33,355.46 347.00,360.31 ZM 208.49 364.25 C208.82,366.31 209.24,368.00 209.42,368.00 C209.60,368.00 210.29,363.61 210.95,358.25 C212.40,346.46 215.88,324.48 216.59,322.63 C217.14,321.19 211.32,320.00 203.74,320.00 C200.11,320.00 199.82,320.19 200.38,322.25 C201.06,324.75 207.55,358.37 208.49,364.25 ZM 501.00 364.17 C501.00,365.88 501.42,366.86 502.00,366.50 C502.55,366.16 503.00,364.67 503.01,363.19 C503.01,361.71 503.90,354.59 504.97,347.37 C506.71,335.75 507.71,330.25 509.53,322.25 C510.02,320.06 509.82,320.00 502.00,320.00 C494.18,320.00 493.98,320.06 494.48,322.25 C495.76,327.84 501.00,361.52 501.00,364.17 ZM 442.60 598.78 C438.54,602.20 434.98,605.00 434.69,605.00 C434.41,605.00 431.87,602.11 429.06,598.57 C426.25,595.04 423.54,592.00 423.04,591.82 C422.08,591.48 435.36,580.00 436.71,580.00 C437.74,580.01 450.00,590.94 450.00,591.86 C450.00,592.25 446.67,595.36 442.60,598.78 Z" fill="rgb(4,3,4)"/>
<path d="M 505.01 480.19 C505.00,483.87 504.55,487.16 504.00,487.50 C503.35,487.90 502.99,482.92 502.98,473.31 C502.97,461.45 502.43,450.12 501.15,437.20 C502.39,449.51 502.98,460.32 503.06,471.00 C503.18,485.80 504.13,484.27 505.55,468.05 C505.23,472.77 505.01,477.57 505.01,480.19 ZM 509.64 411.07 C511.47,385.67 513.31,367.62 515.73,352.90 C513.38,367.31 511.55,385.24 509.64,411.07 ZM 506.43 456.78 C506.96,449.32 507.62,439.99 508.18,432.00 C508.12,432.99 508.05,433.99 507.99,435.00 C507.55,441.75 506.93,450.34 506.43,456.78 Z" fill="rgb(148,148,148)"/>
<path d="M 573.51 602.86 L 580.81 596.72 L 572.28 590.36 C567.58,586.86 563.46,584.00 563.12,584.01 C562.78,584.01 559.35,586.95 555.50,590.53 C549.07,596.51 548.65,597.15 550.36,598.27 C550.97,598.68 552.50,599.79 554.36,601.18 C552.38,599.84 550.48,598.65 549.23,598.00 C544.27,595.42 543.74,595.63 533.00,604.46 C528.88,607.86 524.29,611.42 522.82,612.39 C520.26,614.06 520.05,614.06 518.20,612.32 C514.26,608.62 494.24,595.00 492.75,595.00 C491.49,595.00 483.72,602.92 478.46,609.21 C479.12,608.30 479.84,607.31 480.62,606.23 C482.02,604.28 482.27,600.52 482.36,580.23 C482.46,554.00 481.58,543.75 476.48,512.00 C469.75,470.11 469.02,465.37 467.54,453.50 C464.20,426.62 462.82,407.01 462.29,378.50 C461.62,342.59 462.94,315.43 467.10,279.50 C471.70,239.86 473.76,221.19 474.41,213.50 L 474.99 206.50 L 460.63 195.66 C452.73,189.69 441.37,180.80 435.39,175.91 C429.40,171.01 424.27,167.00 423.97,167.00 C423.64,167.00 422.88,168.74 421.83,171.68 C424.23,163.60 424.12,161.36 421.62,164.06 C419.58,166.27 410.61,187.25 406.02,200.57 C392.05,241.08 386.13,288.39 387.31,350.00 C388.05,388.17 390.04,410.21 395.10,436.37 C403.34,478.85 416.51,510.75 436.82,537.36 L 441.29 543.23 L 398.90 585.41 C355.52,628.57 317.75,665.06 316.31,665.19 C315.56,665.26 314.80,666.15 312.64,669.87 C314.07,667.20 315.32,664.65 315.76,663.47 C316.37,661.84 318.94,655.57 321.47,649.55 C328.32,633.25 331.94,618.80 332.68,604.75 C333.20,595.01 333.07,593.02 331.90,593.13 C331.19,593.19 326.43,597.66 320.97,603.34 C322.89,601.28 324.00,599.98 324.00,599.72 C324.00,598.08 301.46,617.09 283.50,633.87 C264.18,651.92 259.25,657.14 259.25,659.55 C259.25,661.41 259.56,661.74 260.78,661.08 C257.83,663.56 255.89,665.00 255.39,665.00 C254.90,665.00 251.35,661.36 247.50,656.91 C240.62,648.95 228.29,637.59 214.50,626.47 C190.28,606.97 155.71,589.18 127.42,581.67 L 119.01 579.44 L 125.52 573.97 C144.61,557.95 155.23,531.96 161.89,485.00 C167.03,448.75 168.70,430.90 169.99,398.50 C172.75,328.89 163.28,270.79 141.89,226.03 C133.80,209.11 124.43,195.43 113.01,183.87 C98.55,169.22 84.31,160.90 68.18,157.66 L 61.85 156.40 L 67.27 153.74 C70.62,152.10 74.02,150.68 77.47,149.47 C75.68,150.19 73.85,151.00 71.94,151.92 C68.40,153.63 66.29,154.81 67.25,154.54 C68.22,154.28 76.88,153.51 86.50,152.83 C102.10,151.73 105.39,151.79 116.75,153.36 C124.58,154.44 133.16,156.38 139.00,158.41 C144.22,160.22 149.08,161.77 149.80,161.85 C150.51,161.93 152.15,160.77 153.44,159.28 L 155.78 156.55 L 150.15 154.06 C154.42,155.77 155.56,155.80 156.78,154.86 C169.25,145.13 240.25,79.73 255.75,63.81 C247.99,73.66 238.16,96.90 234.54,114.48 C233.44,119.84 230.00,145.74 230.00,148.68 C230.00,149.88 232.10,147.99 238.56,141.00 C242.37,136.88 244.55,134.29 243.41,135.25 C241.75,136.66 240.60,137.24 239.89,136.69 C241.79,136.30 247.45,131.71 262.50,118.53 C280.90,102.43 307.79,76.40 311.19,71.41 L 311.21 71.38 C310.36,72.99 309.71,74.80 309.80,75.81 C310.13,79.79 315.93,89.62 322.53,97.35 C333.71,110.45 351.56,123.41 372.91,133.92 C379.71,137.26 385.39,140.00 385.54,140.00 C385.69,140.00 387.70,138.42 390.02,136.49 L 394.22 132.97 L 392.76 132.46 C394.38,132.81 396.81,131.25 403.11,125.84 C424.12,107.81 451.66,82.05 460.48,72.22 L 460.00 72.79 L 462.37 79.81 C464.82,87.06 466.17,89.35 473.94,99.40 C491.06,121.57 531.95,146.31 566.76,155.56 L 577.02 158.29 L 572.06 163.53 C552.93,183.76 543.30,215.20 536.83,278.50 C534.82,298.15 535.13,369.32 537.32,392.39 C541.61,437.59 550.55,475.82 564.46,508.50 C580.55,546.28 605.36,575.32 628.25,583.18 C631.96,584.45 634.86,585.93 634.68,586.47 C634.32,587.53 633.85,587.65 614.50,591.57 C607.35,593.02 599.17,594.80 596.32,595.53 C591.11,596.86 586.56,596.53 587.57,594.89 C587.87,594.40 587.38,594.00 586.47,594.00 C584.71,594.00 582.70,595.41 572.62,603.75 C569.13,606.64 565.95,609.00 565.56,609.00 C565.52,609.00 565.46,608.98 565.37,608.94 C565.90,608.92 569.54,606.20 573.51,602.86 ZM 336.06 572.43 C337.14,571.13 336.89,567.31 334.58,550.18 C331.86,529.96 324.01,480.42 320.04,458.48 C317.34,443.53 314.41,423.28 312.59,407.00 C306.77,355.02 307.98,319.46 319.03,217.16 C320.11,207.07 320.73,198.37 320.39,197.82 C318.73,195.14 296.76,181.91 282.50,175.01 C265.13,166.60 239.37,156.30 238.32,157.35 C237.72,157.94 238.57,175.96 239.99,196.37 C239.15,185.22 238.52,175.37 237.85,164.02 C237.77,162.63 237.39,163.98 237.00,167.00 C236.61,170.02 235.49,176.10 234.51,180.50 C233.00,187.31 232.82,191.56 233.30,209.00 C233.62,220.27 234.34,234.23 234.91,240.00 C241.49,306.54 243.44,351.81 242.70,420.50 C242.15,470.47 240.81,498.08 237.92,518.34 C236.66,527.17 235.89,528.58 226.93,538.39 C224.62,540.91 222.94,542.22 222.93,543.55 C222.91,545.46 226.35,547.40 236.33,553.03 C238.03,553.99 239.91,555.05 242.00,556.24 C266.31,570.07 282.64,577.20 299.00,581.12 C303.80,582.27 309.59,582.84 315.08,582.71 C322.57,582.53 324.18,582.15 327.83,579.74 C333.06,576.27 333.32,574.00 328.49,574.00 C324.40,574.00 317.81,572.73 310.27,570.68 C323.29,574.08 333.81,575.14 336.06,572.43 ZM 352.90 484.00 C353.50,477.12 354.89,456.20 355.99,437.50 C357.09,418.80 358.47,397.20 359.06,389.50 C361.24,361.01 366.41,332.17 372.12,316.69 C373.73,312.30 374.78,308.45 374.44,308.11 C373.40,307.06 322.00,306.74 322.00,307.78 C322.00,308.31 323.32,312.73 324.93,317.62 C326.84,323.42 328.88,330.66 330.94,338.77 C327.14,324.22 322.72,310.00 321.91,310.00 C321.17,310.00 321.76,313.57 326.98,340.50 C338.77,401.37 342.86,435.68 344.50,487.45 C344.85,498.43 345.36,507.77 345.63,508.20 C346.71,509.96 347.94,508.82 348.57,505.49 C348.93,503.56 349.67,501.71 350.21,501.37 C351.02,500.87 350.87,485.61 350.14,468.57 C350.34,472.56 350.51,476.49 350.64,480.31 C350.96,489.55 351.35,496.98 351.51,496.81 C351.67,496.64 352.29,490.88 352.90,484.00 ZM 506.41 457.00 L 506.43 456.78 C506.93,450.34 507.55,441.75 507.99,435.00 C508.05,433.99 508.12,432.99 508.18,432.00 L 508.18 432.00 C508.51,427.33 508.80,423.12 509.01,420.00 C509.22,416.92 509.43,413.95 509.64,411.07 L 509.64 411.06 C511.55,385.23 513.38,367.30 515.73,352.90 C517.81,340.21 520.33,329.99 523.66,319.66 C525.58,313.70 526.88,308.55 526.54,308.21 C525.66,307.33 483.84,306.62 479.64,307.41 L 476.17 308.06 L 477.59 312.62 C476.98,310.96 476.52,310.15 476.26,310.41 C475.98,310.69 476.27,315.33 476.91,320.71 C477.98,329.70 479.05,335.76 484.85,366.00 C488.08,382.83 492.72,417.07 496.49,452.00 C497.88,464.92 499.55,478.99 500.19,483.25 C500.82,487.51 501.72,491.00 502.17,491.00 C502.63,491.00 502.99,483.69 502.98,474.75 C502.97,461.94 502.44,450.22 501.12,436.91 C501.13,437.01 501.14,437.11 501.15,437.20 C502.43,450.12 502.97,461.45 502.98,473.31 C502.99,482.92 503.35,487.90 504.00,487.50 C504.55,487.16 505.00,483.87 505.01,480.19 C505.01,477.57 505.23,472.77 505.55,468.05 C505.82,464.91 506.11,461.22 506.41,457.00 ZM 214.00 474.40 C214.00,472.97 214.67,462.28 215.50,450.65 C216.32,439.02 217.90,416.67 219.01,401.00 C222.35,353.81 225.38,334.32 232.04,317.04 C233.78,312.55 234.93,308.59 234.60,308.26 C233.75,307.42 187.74,306.60 184.66,307.37 L 182.12 308.01 L 184.59 315.25 C187.84,324.79 192.56,342.61 196.97,361.28 C195.70,356.04 194.35,350.62 192.92,345.00 C187.54,323.97 184.27,313.06 182.88,311.55 C181.42,309.97 181.81,312.50 186.56,335.50 C195.81,380.25 196.95,386.03 198.94,398.14 C202.30,418.55 204.92,439.26 207.09,462.45 C208.21,474.53 209.43,484.88 209.79,485.45 C210.16,486.04 210.62,485.62 210.84,484.50 C211.06,483.40 211.56,482.27 211.96,482.00 C212.23,481.81 212.31,478.31 212.25,473.15 C212.42,475.62 212.68,477.00 213.00,477.00 C213.55,477.00 214.00,475.83 214.00,474.40 ZM 94.28 145.32 C104.27,143.84 114.49,144.03 124.68,145.91 C119.42,145.07 113.87,144.71 107.50,144.72 C102.46,144.72 98.16,144.89 94.28,145.32 ZM 403.14 244.48 C399.75,264.88 397.55,287.86 396.62,311.32 C397.39,289.86 399.19,269.05 402.05,251.00 C402.40,248.84 402.76,246.66 403.14,244.48 ZM 318.29 606.16 C307.85,617.09 292.71,631.84 279.89,643.84 C293.10,631.30 309.71,615.04 318.29,606.16 ZM 391.70 132.09 L 390.98 131.84 C385.30,129.86 377.73,126.11 369.79,121.49 C373.37,123.53 376.87,125.37 380.17,126.93 C384.92,129.17 389.61,131.27 391.70,132.09 ZM 243.87 101.94 C241.87,109.32 240.56,116.57 239.79,124.22 C239.37,128.36 239.12,132.13 239.09,134.39 C238.86,131.97 239.22,127.67 240.04,120.97 C240.80,114.74 242.06,108.45 243.87,101.94 ZM 417.32 185.89 C414.20,196.43 410.62,209.58 408.02,220.40 C410.68,208.83 413.80,197.25 417.32,185.89 ZM 211.98 462.16 C211.72,454.07 211.31,445.00 210.84,438.01 C211.58,446.15 211.94,453.95 211.98,462.16 ZM 399.44 399.57 C399.63,401.23 399.83,402.87 400.03,404.50 C401.78,418.25 404.21,431.50 407.31,444.11 C406.12,439.35 405.02,434.48 403.99,429.50 C402.15,420.55 400.63,410.44 399.44,399.57 ZM 342.01 391.02 C342.93,396.27 343.78,401.46 344.55,406.50 C345.18,410.71 345.81,415.62 346.40,421.00 C345.21,411.24 343.73,401.13 342.01,391.02 ZM 492.87 380.00 C489.86,363.13 485.80,344.02 482.42,330.09 C485.87,344.20 489.90,363.36 492.87,380.00 ZM 243.63 240.30 C244.46,249.61 245.33,259.39 245.97,266.50 C246.37,271.04 246.75,275.31 247.10,279.35 C246.76,275.45 246.40,271.35 246.01,267.00 C245.11,257.01 244.32,248.20 243.63,240.30 ZM 325.57 664.65 C334.64,656.67 345.30,647.12 352.98,640.02 C344.79,647.58 334.37,656.92 325.57,664.65 ZM 250.58 329.81 C251.29,346.64 251.47,363.90 251.48,390.00 C251.47,363.97 251.29,346.63 250.58,329.81 ZM 473.70 615.45 C472.75,616.65 471.83,617.56 471.40,617.71 C471.39,617.71 471.37,617.71 471.36,617.71 C471.36,617.71 471.36,617.71 471.37,617.71 C471.78,617.57 472.51,616.88 473.70,615.45 ZM 314.00 68.05 C314.27,68.06 315.60,70.34 316.95,73.11 C315.60,70.34 314.27,68.07 314.00,68.07 C313.97,68.07 313.93,68.07 313.90,68.08 C313.94,68.06 313.97,68.04 314.00,68.05 ZM 261.85 57.41 C262.12,57.14 262.29,57.00 262.32,57.00 C262.32,57.00 262.32,57.00 262.32,57.00 C262.27,57.02 262.11,57.17 261.85,57.41 Z" fill="rgb(251,108,178)"/>
<path d="M 0.00 379.00 L 0.00 0.00 L 398.00 0.00 L 796.00 0.00 L 796.00 379.00 L 796.00 758.00 L 398.00 758.00 L 0.00 758.00 L 0.00 379.00 ZM 628.20 715.45 C635.86,708.22 634.95,708.37 645.50,712.64 C653.59,715.92 653.46,715.92 653.80,712.38 C654.07,709.65 653.49,708.82 649.10,705.66 C640.30,699.34 640.57,700.79 640.00,657.30 L 639.50 619.10 L 631.29 613.09 L 623.09 607.08 L 617.82 611.04 C614.92,613.22 612.20,615.00 611.76,615.00 C611.32,615.00 612.96,616.91 615.39,619.25 C618.90,622.62 619.95,624.43 620.48,628.00 C620.85,630.47 621.00,652.64 620.83,677.25 C620.65,701.86 620.67,722.00 620.88,722.00 C621.09,722.00 624.38,719.05 628.20,715.45 ZM 600.74 697.50 C614.10,685.01 614.54,684.47 611.99,683.77 C610.53,683.36 608.47,682.08 607.42,680.91 C605.64,678.95 605.46,676.53 604.95,648.65 C604.65,632.07 604.31,618.44 604.20,618.36 C599.24,614.98 592.02,609.32 592.01,608.80 C592.00,608.42 590.81,606.84 589.36,605.30 C587.64,603.47 586.57,602.93 586.28,603.75 C586.03,604.44 585.37,605.00 584.81,605.00 C584.25,605.00 580.45,607.81 576.36,611.25 C572.27,614.69 568.16,617.78 567.21,618.12 C565.03,618.92 563.44,618.06 552.70,610.34 C547.87,606.85 543.69,604.00 543.43,604.00 C543.17,604.00 541.05,605.74 538.73,607.86 C532.37,613.65 517.94,625.10 514.23,627.29 C511.07,629.15 511.02,629.29 512.82,630.86 C516.71,634.27 517.00,636.28 517.00,659.47 C517.00,684.45 516.51,687.08 511.11,690.92 C507.19,693.72 507.08,695.36 510.87,694.53 C514.29,693.78 520.23,696.76 529.86,704.05 L 536.21 708.86 L 538.36 706.55 C541.91,702.72 552.04,694.89 562.38,688.00 L 572.14 681.50 L 571.68 653.00 C571.24,625.18 571.28,624.42 573.36,621.26 C574.54,619.47 576.01,618.01 576.63,618.01 C579.15,617.99 584.85,625.83 585.49,630.17 C585.84,632.55 585.98,651.71 585.81,672.75 C585.64,693.79 585.80,710.89 586.16,710.75 C586.53,710.61 593.09,704.65 600.74,697.50 ZM 446.65 706.22 C450.60,702.46 459.70,696.00 461.04,696.00 C461.87,696.00 475.30,704.97 479.27,708.18 L 482.05 710.42 L 495.00 697.50 C506.39,686.14 511.76,679.43 510.48,678.15 C510.27,677.94 508.38,679.10 506.30,680.75 C497.38,687.77 487.21,690.79 481.94,687.97 C477.46,685.57 477.00,682.61 477.00,656.05 L 477.00 631.00 L 486.59 631.00 C494.67,631.00 496.59,630.68 498.73,629.00 C500.13,627.90 501.80,627.00 502.45,627.00 C503.10,627.00 505.76,625.09 508.36,622.75 L 513.10 618.50 L 503.16 610.75 C497.68,606.49 492.84,603.00 492.38,603.00 C491.93,603.00 488.73,605.80 485.28,609.21 L 479.01 615.43 L 485.76 621.75 L 492.50 628.06 L 488.00 626.13 C485.52,625.07 482.22,623.69 480.65,623.08 C479.08,622.46 477.56,621.04 477.27,619.92 C476.94,618.65 476.19,618.10 475.29,618.44 C474.49,618.75 473.28,619.00 472.60,619.00 C471.91,619.00 468.24,621.49 464.43,624.53 C460.62,627.58 456.49,630.33 455.25,630.64 C452.51,631.34 452.50,631.41 455.03,634.83 C458.10,638.97 459.19,648.99 458.83,669.44 C458.53,686.19 458.31,688.11 456.44,690.62 C453.64,694.36 452.69,694.50 449.36,691.63 C446.66,689.31 446.46,688.61 445.86,678.84 C445.50,673.15 445.16,655.34 445.11,639.26 L 445.00 610.03 L 435.75 614.96 C430.66,617.68 424.59,620.21 422.25,620.58 C417.36,621.36 417.01,622.12 420.48,624.39 C425.95,627.98 426.47,630.53 426.83,655.60 C427.19,681.24 426.65,685.05 421.82,690.55 C420.12,692.48 418.91,694.20 419.12,694.36 C419.33,694.51 422.55,696.19 426.28,698.07 C430.02,699.96 435.19,703.39 437.78,705.71 C440.38,708.02 442.54,709.93 442.59,709.96 C442.64,709.98 444.46,708.30 446.65,706.22 ZM 687.39 697.59 C693.37,693.61 695.34,694.11 706.51,702.49 C712.01,706.62 716.95,709.99 717.50,709.99 C718.74,710.00 747.34,683.48 747.89,681.82 C748.11,681.16 746.77,681.62 744.90,682.85 C729.88,692.71 720.46,693.49 714.09,685.39 C712.07,682.82 712.00,681.66 712.00,651.34 L 712.00 619.95 L 714.75 618.91 C717.77,617.76 718.75,618.17 729.19,625.03 L 734.89 628.77 L 741.44 621.98 C745.05,618.25 748.00,614.77 748.00,614.26 C748.00,613.74 746.97,612.85 745.70,612.28 C744.44,611.70 740.44,608.98 736.81,606.23 L 730.21 601.24 L 721.85 607.62 C717.26,611.13 709.01,617.42 703.52,621.60 C698.04,625.78 691.29,630.35 688.52,631.76 L 683.50 634.33 L 686.58 635.15 C691.44,636.44 692.29,639.51 693.04,658.50 C693.90,680.21 693.12,687.22 689.40,691.11 C685.90,694.75 683.87,694.75 679.77,691.08 L 676.50 688.17 L 676.22 649.08 C676.06,627.59 675.71,610.00 675.44,610.00 C675.16,610.00 672.61,611.84 669.77,614.09 C666.92,616.34 661.53,619.72 657.78,621.61 C650.98,625.04 650.97,625.05 652.88,627.11 C656.23,630.70 657.00,636.97 657.00,660.76 C657.00,684.35 656.08,691.03 652.43,694.06 C651.26,695.03 652.04,695.73 656.75,697.97 C659.91,699.47 664.97,702.75 668.00,705.26 L 673.50 709.82 L 678.50 705.00 C681.25,702.35 685.25,699.02 687.39,697.59 ZM 306.17 695.09 C310.20,692.38 318.45,686.04 324.50,680.99 C335.08,672.17 338.59,669.12 358.48,651.52 C370.45,640.93 410.42,600.89 442.01,567.83 C456.03,553.16 467.80,541.46 468.16,541.83 C469.86,543.55 471.24,570.82 470.79,593.70 C470.44,611.16 470.61,617.96 471.40,617.71 C472.01,617.51 473.54,615.81 474.82,613.92 C478.83,607.99 491.14,595.00 492.75,595.00 C494.24,595.00 514.26,608.62 518.20,612.32 C520.05,614.06 520.26,614.06 522.82,612.39 C524.29,611.42 528.88,607.86 533.00,604.46 C543.74,595.63 544.27,595.42 549.23,598.00 C551.49,599.18 555.93,602.14 559.09,604.57 C562.26,607.01 565.17,609.00 565.56,609.00 C565.95,609.00 569.13,606.64 572.62,603.75 C582.70,595.41 584.71,594.00 586.47,594.00 C587.38,594.00 587.87,594.40 587.57,594.89 C586.56,596.53 591.11,596.86 596.32,595.53 C599.17,594.80 607.35,593.02 614.50,591.57 C633.85,587.65 634.32,587.53 634.68,586.47 C634.86,585.93 631.96,584.45 628.25,583.18 C605.36,575.32 580.55,546.28 564.46,508.50 C550.55,475.82 541.61,437.59 537.32,392.39 C535.13,369.32 534.82,298.15 536.83,278.50 C543.30,215.20 552.93,183.76 572.06,163.53 L 577.02 158.29 L 566.76 155.56 C531.95,146.31 491.06,121.57 473.94,99.40 C466.17,89.35 464.82,87.06 462.37,79.81 L 460.00 72.79 L 462.47 69.86 L 464.94 66.92 L 466.44 70.51 C469.03,76.71 476.94,87.64 485.31,96.59 C508.98,121.89 547.44,144.26 581.02,152.27 L 589.54 154.30 L 584.46 159.50 C564.67,179.77 554.02,211.59 547.32,270.50 C544.78,292.80 544.78,358.56 547.31,383.50 C551.55,425.18 559.09,457.95 571.70,489.50 C583.77,519.69 594.38,536.96 612.45,555.83 C627.56,571.60 650.87,583.87 665.95,583.98 C673.08,584.03 666.21,586.55 651.00,589.47 C646.88,590.26 633.43,592.95 621.11,595.45 C608.80,597.95 597.58,600.00 596.18,600.00 L 593.63 600.00 L 596.31 602.80 C597.79,604.35 599.00,606.15 599.00,606.80 C599.00,607.46 599.70,608.00 600.57,608.00 C602.00,608.00 626.08,602.48 643.99,598.04 L 651.49 596.19 L 657.79 600.59 C661.26,603.02 664.41,605.00 664.80,605.00 C665.18,605.00 668.10,602.96 671.27,600.47 C676.39,596.45 676.92,595.71 675.94,593.88 C675.33,592.75 674.99,591.74 675.17,591.62 C675.35,591.51 677.97,590.33 681.00,589.01 C687.98,585.95 689.00,585.17 689.00,582.94 C689.00,580.90 688.13,580.56 679.00,578.98 C651.53,574.25 627.48,558.73 608.20,533.30 C592.92,513.14 578.68,480.60 570.08,446.20 C561.38,411.40 557.99,379.14 558.01,331.17 C558.02,286.18 561.99,247.98 569.98,215.96 C576.54,189.65 584.52,174.80 598.20,163.42 C604.51,158.17 605.54,156.86 605.81,153.72 C606.09,150.41 605.79,149.93 602.31,148.17 C600.21,147.10 595.84,145.68 592.58,145.01 C582.03,142.83 562.79,136.08 551.02,130.42 C518.36,114.71 485.71,85.10 472.68,59.37 C470.10,54.27 467.05,52.28 463.75,53.54 C462.97,53.84 455.90,60.84 448.04,69.09 C433.94,83.90 419.76,97.04 401.37,112.31 C390.69,121.19 391.78,121.06 380.00,114.77 C353.17,100.43 334.22,82.72 324.06,62.50 C318.24,50.91 314.42,50.05 307.44,58.74 C301.26,66.42 285.60,82.18 269.68,96.73 L 254.86 110.28 L 255.52 106.39 C257.17,96.68 266.50,71.82 273.77,57.77 C280.46,44.84 281.28,42.69 280.43,40.28 C278.49,34.77 272.89,36.05 264.61,43.88 C261.25,47.06 254.64,53.00 249.93,57.08 C245.22,61.16 236.43,69.00 230.40,74.50 C224.37,80.00 209.15,93.72 196.57,105.00 C184.00,116.28 169.40,129.38 164.14,134.12 L 154.57 142.74 L 147.83 140.44 C135.21,136.15 125.37,134.62 110.00,134.56 C93.39,134.49 86.00,135.93 71.81,142.01 C63.05,145.75 49.77,154.68 47.98,158.04 C45.76,162.18 48.86,164.14 60.58,166.00 C75.67,168.40 91.48,177.60 105.59,192.19 C129.80,217.24 147.03,260.04 154.02,312.50 C157.45,338.20 158.29,355.84 157.71,390.50 C157.10,426.80 155.53,447.06 150.91,477.95 C145.84,511.85 139.89,534.11 132.00,548.73 C126.61,558.74 122.74,563.31 114.26,569.70 C103.27,577.99 100.41,583.29 105.25,586.40 C106.49,587.19 112.12,589.00 117.76,590.41 C142.48,596.61 168.33,608.07 191.94,623.31 C213.96,637.53 238.42,659.85 247.72,674.23 C250.13,677.95 252.26,681.00 252.47,681.00 C252.67,681.00 253.52,681.26 254.36,681.59 C256.08,682.25 274.21,665.82 301.25,639.08 C310.46,629.97 317.99,623.19 317.99,624.01 C317.97,626.02 312.80,642.96 309.74,651.00 C307.03,658.14 301.45,669.87 294.52,683.00 C288.91,693.65 288.75,696.11 293.50,698.81 C296.84,700.70 298.53,700.20 306.17,695.09 ZM 442.60 598.78 C446.67,595.36 450.00,592.25 450.00,591.86 C450.00,590.94 437.74,580.01 436.71,580.00 C435.36,580.00 422.08,591.48 423.04,591.82 C423.54,592.00 426.25,595.04 429.06,598.57 C431.87,602.11 434.41,605.00 434.69,605.00 C434.98,605.00 438.54,602.20 442.60,598.78 ZM 544.50 690.06 C542.85,688.99 540.38,687.22 539.00,686.12 L 536.50 684.12 L 536.00 651.06 C535.72,632.87 535.86,618.00 536.30,618.00 C537.86,618.00 548.84,625.98 550.91,628.61 C552.92,631.17 553.00,632.35 553.00,660.43 C553.00,690.37 552.79,692.01 549.05,692.00 C548.20,691.99 546.15,691.12 544.50,690.06 ZM 310.17 674.25 C314.32,666.78 315.33,665.28 316.31,665.19 C317.75,665.06 355.52,628.57 398.90,585.41 L 441.29 543.23 L 436.82 537.36 C416.51,510.75 403.34,478.85 395.10,436.37 C390.04,410.21 388.05,388.17 387.31,350.00 C386.13,288.39 392.05,241.08 406.02,200.57 C410.61,187.25 419.58,166.27 421.62,164.06 C424.70,160.73 424.15,164.92 419.75,178.29 C411.93,202.08 405.86,227.03 402.05,251.00 C393.54,304.68 394.39,382.83 403.99,429.50 C412.99,473.25 428.24,508.78 449.21,534.87 L 453.92 540.73 L 410.21 584.14 C386.17,608.01 360.42,633.16 352.98,640.02 C337.04,654.74 308.32,680.00 307.53,680.00 C307.23,680.00 308.42,677.41 310.17,674.25 ZM 259.25 659.55 C259.25,657.14 264.18,651.92 283.50,633.87 C301.46,617.09 324.00,598.08 324.00,599.72 C324.00,601.62 265.51,658.43 260.88,661.03 C259.57,661.75 259.25,661.46 259.25,659.55 ZM 299.00 581.12 C282.64,577.20 266.31,570.07 242.00,556.24 C219.08,543.20 220.74,545.16 226.93,538.39 C235.89,528.58 236.66,527.17 237.92,518.34 C240.81,498.08 242.15,470.47 242.70,420.50 C243.44,351.81 241.49,306.54 234.91,240.00 C234.34,234.23 233.62,220.27 233.30,209.00 C232.82,191.56 233.00,187.31 234.51,180.50 C235.49,176.10 236.61,170.02 237.00,167.00 C237.39,163.98 237.77,162.63 237.85,164.02 C239.53,192.76 241.05,211.90 246.01,267.00 C250.72,319.34 251.45,335.90 251.48,390.00 C251.50,442.09 250.64,464.52 247.42,496.00 C245.93,510.47 242.56,533.39 241.50,536.14 C240.76,538.06 256.54,548.43 272.50,556.53 C289.70,565.25 317.74,574.00 328.49,574.00 C333.32,574.00 333.06,576.27 327.83,579.74 C324.18,582.15 322.57,582.53 315.08,582.71 C309.59,582.84 303.80,582.27 299.00,581.12 ZM 312.00 558.00 C295.42,553.26 272.12,541.45 263.20,533.28 L 259.07 529.50 L 260.47 520.50 C262.68,506.27 265.87,468.59 266.98,443.67 C269.72,382.09 267.01,323.82 256.42,217.13 C254.49,197.67 253.12,181.55 253.37,181.30 C253.62,181.04 254.65,181.27 255.66,181.80 C256.67,182.33 262.23,184.44 268.00,186.49 C273.77,188.54 284.51,193.11 291.87,196.66 L 305.23 203.09 L 304.58 206.30 C303.58,211.25 301.21,229.08 299.56,244.00 C291.46,317.37 291.06,363.21 298.04,416.78 C300.59,436.31 319.92,552.24 321.64,558.25 C322.27,560.48 320.50,560.43 312.00,558.00 ZM 460.53 529.79 C438.90,505.96 421.72,462.86 414.57,414.50 C408.98,376.73 408.99,325.20 414.60,276.50 C418.17,245.56 429.49,189.00 432.12,189.00 C432.96,189.00 448.71,200.85 455.76,206.76 L 459.01 209.50 L 457.09 221.00 C455.11,232.88 450.73,270.79 449.00,291.00 C448.46,297.33 447.51,315.66 446.90,331.75 C444.76,387.85 448.59,434.66 460.63,499.50 C466.12,529.09 467.14,535.19 466.68,535.66 C466.44,535.89 463.68,533.25 460.53,529.79 ZM 345.63 508.20 C345.36,507.77 344.85,498.43 344.50,487.45 C342.86,435.68 338.77,401.37 326.98,340.50 C321.76,313.57 321.17,310.00 321.91,310.00 C322.82,310.00 328.36,328.21 332.40,344.50 C339.88,374.66 345.86,410.33 348.39,440.00 C350.38,463.29 351.49,500.58 350.21,501.37 C349.67,501.71 348.93,503.56 348.57,505.49 C347.94,508.82 346.71,509.96 345.63,508.20 ZM 500.19 483.25 C499.55,478.99 497.88,464.92 496.49,452.00 C492.72,417.07 488.08,382.83 484.85,366.00 C479.05,335.76 477.98,329.70 476.91,320.71 C476.27,315.33 475.98,310.69 476.26,310.41 C477.97,308.69 488.46,353.60 493.91,386.00 C500.73,426.57 502.96,448.36 502.98,474.75 C502.99,483.69 502.63,491.00 502.17,491.00 C501.72,491.00 500.82,487.51 500.19,483.25 ZM 209.79 485.45 C209.43,484.88 208.21,474.53 207.09,462.45 C204.92,439.26 202.30,418.55 198.94,398.14 C196.95,386.03 195.81,380.25 186.56,335.50 C181.81,312.50 181.42,309.97 182.88,311.55 C184.27,313.06 187.54,323.97 192.92,345.00 C201.73,379.46 207.25,406.53 210.07,428.97 C211.44,439.92 212.92,481.34 211.96,482.00 C211.56,482.27 211.06,483.40 210.84,484.50 C210.62,485.62 210.16,486.04 209.79,485.45 ZM 347.00 360.31 C346.33,355.46 344.48,344.86 342.89,336.74 C341.30,328.63 340.00,321.52 340.00,320.95 C340.00,320.02 356.97,319.91 356.99,320.84 C357.00,321.03 356.12,325.53 355.04,330.84 C353.96,336.15 352.13,346.80 350.96,354.50 C349.79,362.20 348.69,368.64 348.53,368.81 C348.36,368.97 347.67,365.15 347.00,360.31 ZM 208.49 364.25 C207.55,358.37 201.06,324.75 200.38,322.25 C199.82,320.19 200.11,320.00 203.74,320.00 C211.32,320.00 217.14,321.19 216.59,322.63 C215.88,324.48 212.40,346.46 210.95,358.25 C210.29,363.61 209.60,368.00 209.42,368.00 C209.24,368.00 208.82,366.31 208.49,364.25 ZM 501.00 364.17 C501.00,361.52 495.76,327.84 494.48,322.25 C493.98,320.06 494.18,320.00 502.00,320.00 C509.82,320.00 510.02,320.06 509.53,322.25 C507.71,330.25 506.71,335.75 504.97,347.37 C503.90,354.59 503.01,361.71 503.01,363.19 C503.00,364.67 502.55,366.16 502.00,366.50 C501.42,366.86 501.00,365.88 501.00,364.17 ZM 139.00 158.41 C133.16,156.38 124.58,154.44 116.75,153.36 C105.39,151.79 102.10,151.73 86.50,152.83 C76.88,153.51 68.22,154.28 67.25,154.54 C66.29,154.81 68.40,153.63 71.94,151.92 C83.35,146.43 91.78,144.72 107.50,144.72 C123.36,144.71 134.08,146.94 148.14,153.17 L 155.78 156.55 L 153.44 159.28 C152.15,160.77 150.51,161.93 149.80,161.85 C149.08,161.77 144.22,160.22 139.00,158.41 ZM 230.00 148.68 C230.00,145.74 233.44,119.84 234.54,114.48 C238.44,95.53 249.57,69.99 257.52,61.75 C260.05,59.14 262.21,57.00 262.33,57.00 C262.46,57.00 260.29,61.61 257.51,67.25 C247.61,87.39 242.07,104.42 240.04,120.97 C238.12,136.62 238.73,139.21 243.41,135.25 C244.55,134.29 242.37,136.88 238.56,141.00 C232.10,147.99 230.00,149.88 230.00,148.68 ZM 372.91 133.92 C351.56,123.41 333.71,110.45 322.53,97.35 C315.93,89.62 310.13,79.79 309.80,75.81 C309.62,73.69 312.68,68.05 314.00,68.07 C314.27,68.07 315.60,70.34 316.95,73.11 C320.58,80.57 333.56,95.68 342.58,102.95 C357.26,114.79 378.60,127.53 390.98,131.84 L 394.22 132.97 L 390.02 136.49 C387.70,138.42 385.69,140.00 385.54,140.00 C385.39,140.00 379.71,137.26 372.91,133.92 Z" fill="rgb(254,254,254)"/>
</g>
</svg>